<?xml version="1.0" standalone="no"?>
<!DOCTYPE svg PUBLIC "-//W3C//DTD SVG 20010904//EN"
 "http://www.w3.org/TR/2001/REC-SVG-20010904/DTD/svg10.dtd">
<svg version="1.0" xmlns="http://www.w3.org/2000/svg"
 width="500.000000pt" height="500.000000pt" viewBox="0 0 500.000000 500.000000"
 preserveAspectRatio="xMidYMid meet">
<g transform="translate(0.000000,500.000000) scale(0.050000,-0.050000)"
fill="#000000" stroke="none">
<path d="M0 5000 l0 -5000 5000 0 5000 0 0 5000 0 5000 -5000 0 -5000 0 0
-5000z m5600 3091 c414 -76 718 -177 1060 -352 938 -482 1631 -1395 1841
-2425 84 -412 93 -723 22 -801 -132 -148 -323 -44 -323 175 0 1422 -1081 2794
-2490 3162 -476 124 -1124 150 -1540 63 -468 -99 -859 -255 -1216 -486 -155
-100 -152 -99 -146 -52 6 40 298 248 496 352 337 178 786 322 1152 372 85 11
181 25 214 29 129 19 768 -7 930 -37z m-2809 -746 c-2 -19 -31 -48 -63 -65
-32 -16 -76 -50 -99 -75 -22 -25 -49 -45 -60 -45 -10 0 -44 -32 -75 -70 -31
-39 -66 -70 -79 -70 -12 0 46 68 130 152 102 101 161 147 179 137 14 -9 19 -8
11 1 -15 17 19 70 46 70 8 0 13 -16 10 -35z m2919 -125 c1848 -463 2672 -2665
1581 -4225 -232 -332 -404 -479 -510 -435 -181 74 -175 182 21 406 83 94 176
210 207 258 32 47 73 109 91 137 369 544 468 1493 227 2164 -311 866 -1099
1554 -1954 1706 -50 9 -68 20 -51 30 17 11 2 19 -43 25 -38 4 -6 4 71 -1 77
-5 239 -34 360 -65z m713 -1336 c33 -30 49 -61 42 -80 -7 -18 -3 -25 9 -18 29
18 93 -58 75 -88 -10 -15 -7 -19 8 -10 14 9 46 -23 84 -82 718 -1125 150
-2629 -1138 -3015 -187 -56 -533 -103 -612 -83 -214 54 -184 352 36 352 1457
1 2339 1643 1542 2871 -42 66 -75 131 -72 146 3 15 -3 22 -13 15 -11 -6 -36
13 -55 43 -41 63 -18 50 94 -51z m-332 -1595 c-146 -626 -812 -1055 -1467
-944 -546 92 -976 522 -635 635 91 30 137 13 267 -93 624 -508 1615 -192 1800
573 53 218 53 219 60 87 3 -68 -8 -184 -25 -258z"/>
</g>
</svg>
