<?xml version="1.0" standalone="no"?> <!DOCTYPE svg PUBLIC "-//W3C//DTD SVG 20010904//EN" "http://www.w3.org/TR/2001/REC-SVG-20010904/DTD/svg10.dtd"> <svg version="1.0" xmlns="http://www.w3.org/2000/svg" width="500.000000pt" height="500.000000pt" viewBox="0 0 500.000000 500.000000" preserveAspectRatio="xMidYMid meet"> <g transform="translate(0.000000,500.000000) scale(0.050000,-0.050000)" fill="#ffffff" stroke="none"> <path d="M4670 8128 c-33 -4 -129 -18 -214 -29 -366 -50 -815 -194 -1152 -372 -198 -104 -490 -312 -496 -352 -6 -47 -9 -48 146 52 357 231 748 387 1216 486 1988 420 4030 -1214 4030 -3225 0 -173 113 -280 242 -231 125 48 146 124 120 425 -62 717 -293 1302 -758 1920 -407 541 -1177 1043 -1865 1216 -373 93 -1002 148 -1269 110z"/> <path d="M2743 7353 c-13 -15 -16 -34 -8 -43 8 -9 3 -10 -11 -1 -18 10 -77 -36 -179 -137 -84 -84 -142 -152 -130 -152 13 0 48 31 79 70 31 38 65 70 75 70 11 0 38 20 60 45 23 25 67 59 99 75 32 17 61 46 63 65 6 42 -17 46 -48 8z"/> <path d="M5279 7286 c45 -6 60 -14 43 -25 -17 -10 1 -21 51 -30 855 -152 1643 -840 1954 -1706 241 -671 142 -1620 -227 -2164 -18 -28 -59 -90 -91 -137 -31 -48 -124 -164 -207 -258 -196 -224 -202 -332 -21 -406 273 -114 854 849 979 1623 236 1455 -969 3007 -2410 3102 -77 5 -109 5 -71 1z"/> <path d="M6329 5935 c19 -30 44 -49 55 -43 10 7 16 0 13 -15 -3 -15 30 -80 72 -146 797 -1228 -85 -2870 -1542 -2871 -220 0 -250 -298 -36 -352 79 -20 425 27 612 83 1288 386 1856 1890 1138 3015 -38 59 -70 91 -84 82 -15 -9 -18 -5 -8 10 18 30 -46 106 -75 88 -12 -7 -16 0 -9 18 11 30 -33 81 -133 157 -38 28 -38 28 -3 -26z"/> <path d="M6094 4610 c-9 -33 -26 -100 -38 -150 -185 -765 -1176 -1081 -1800 -573 -130 106 -176 123 -267 93 -341 -113 89 -543 635 -635 655 -111 1321 318 1467 944 32 140 35 443 3 321z"/> </g> </svg>