<?xml version="1.0" standalone="no"?> <!DOCTYPE svg PUBLIC "-//W3C//DTD SVG 20010904//EN" "http://www.w3.org/TR/2001/REC-SVG-20010904/DTD/svg10.dtd"> <svg version="1.0" xmlns="http://www.w3.org/2000/svg" width="400.000000pt" height="399.000000pt" viewBox="0 0 400.000000 399.000000" preserveAspectRatio="xMidYMid meet"> <g transform="translate(0.000000,399.000000) scale(0.050000,-0.050000)" fill="#ffffff" stroke="none"> <path d="M1807 6097 c-236 -28 -466 -198 -578 -427 -67 -137 -103 -755 -48 -821 14 -17 394 -212 844 -434 l820 -404 -816 -406 c-449 -223 -828 -416 -844 -429 -56 -46 -26 -682 38 -820 75 -158 198 -284 354 -361 l132 -65 1791 0 1790 0 111 55 c187 91 419 371 419 504 0 49 17 42 502 -200 255 -127 475 -227 491 -221 23 9 27 68 23 316 l-6 304 -70 36 c-38 20 -636 316 -1327 658 -691 342 -1249 629 -1240 637 9 9 463 235 1007 503 545 268 1134 560 1310 648 l320 160 6 305 c4 244 0 308 -22 316 -15 6 -236 -93 -491 -220 -489 -243 -503 -249 -503 -200 0 131 -252 430 -434 514 l-96 45 -1690 10 c-930 6 -1736 4 -1793 -3z m3385 -624 c44 -37 56 -68 63 -157 l10 -111 -875 -432 c-481 -238 -879 -433 -883 -433 -5 0 -404 195 -888 433 l-879 434 0 104 c0 85 9 113 53 156 l52 53 1647 0 1646 0 54 -47z m-952 -2153 c369 -184 749 -372 845 -418 l175 -83 0 -101 c0 -85 -9 -110 -58 -160 l-59 -58 -1646 1 c-1263 0 -1654 6 -1679 25 -52 40 -78 106 -78 199 l0 88 875 432 c595 294 888 428 915 421 22 -7 342 -162 710 -346z"/> </g> </svg>