<?xml version="1.0" standalone="no"?>
<!DOCTYPE svg PUBLIC "-//W3C//DTD SVG 20010904//EN"
 "http://www.w3.org/TR/2001/REC-SVG-20010904/DTD/svg10.dtd">
<svg version="1.0" xmlns="http://www.w3.org/2000/svg"
 width="400.000000pt" height="399.000000pt" viewBox="0 0 400.000000 399.000000"
 preserveAspectRatio="xMidYMid meet">
<g transform="translate(0.000000,399.000000) scale(0.050000,-0.050000)"
fill="#000000" stroke="none">
<path d="M0 3990 l0 -3990 4000 0 4000 0 0 3990 0 3990 -4000 0 -4000 0 0
-3990z m5386 2055 c182 -84 434 -383 434 -514 0 -49 14 -43 503 200 255 127
476 226 491 220 22 -8 26 -72 22 -316 l-6 -305 -320 -160 c-176 -88 -765 -380
-1310 -648 -544 -268 -998 -494 -1007 -503 -9 -8 549 -295 1240 -637 691 -342
1289 -638 1327 -658 l70 -36 6 -304 c4 -248 0 -307 -23 -316 -16 -6 -236 94
-491 221 -485 242 -502 249 -502 200 0 -133 -232 -413 -419 -504 l-111 -55
-1790 0 -1791 0 -132 65 c-156 77 -279 203 -354 361 -64 138 -94 774 -38 820
16 13 395 206 844 429 l816 406 -820 404 c-450 222 -830 417 -844 434 -55 66
-19 684 48 821 112 229 342 399 578 427 57 7 863 9 1793 3 l1690 -10 96 -45z"/>
<path d="M1793 5467 c-44 -43 -53 -71 -53 -156 l0 -104 879 -434 c484 -238
883 -433 888 -433 4 0 402 195 883 433 l875 432 -10 111 c-7 89 -19 120 -63
157 l-54 47 -1646 0 -1647 0 -52 -53z"/>
<path d="M2615 3245 l-875 -432 0 -88 c0 -93 26 -159 78 -199 25 -19 416 -25
1679 -25 l1646 -1 59 58 c49 50 58 75 58 160 l0 101 -175 83 c-96 46 -476 234
-845 418 -368 184 -688 339 -710 346 -27 7 -320 -127 -915 -421z"/>
</g>
</svg>
